  0
SECTION
  2
BLOCKS
  0
ENDSEC
  0
SECTION
  2
ENTITIES
  0
LINE
  8
0
 10
2.38721
 20
-75.9625
 11
4.77208
 21
-75.85
  0
LINE
  8
0
 10
4.77208
 20
-75.85
 11
7.15222
 21
-75.6627
  0
LINE
  8
0
 10
7.15222
 20
-75.6627
 11
9.52531
 21
-75.4007
  0
LINE
  8
0
 10
9.52531
 20
-75.4007
 11
11.889
 21
-75.0643
  0
LINE
  8
0
 10
11.889
 20
-75.0643
 11
14.241
 21
-74.6538
  0
LINE
  8
0
 10
14.241
 20
-74.6538
 11
16.5789
 21
-74.1697
  0
LINE
  8
0
 10
16.5789
 20
-74.1697
 11
18.9004
 21
-73.6123
  0
LINE
  8
0
 10
18.9004
 20
-73.6123
 11
21.2033
 21
-72.9823
  0
LINE
  8
0
 10
21.2033
 20
-72.9823
 11
23.4853
 21
-72.2803
  0
LINE
  8
0
 10
23.4853
 20
-72.2803
 11
25.7441
 21
-71.5069
  0
LINE
  8
0
 10
25.7441
 20
-71.5069
 11
27.9775
 21
-70.663
  0
LINE
  8
0
 10
27.9775
 20
-70.663
 11
30.1832
 21
-69.7494
  0
LINE
  8
0
 10
30.1832
 20
-69.7494
 11
32.3592
 21
-68.7669
  0
LINE
  8
0
 10
32.3592
 20
-68.7669
 11
34.5033
 21
-67.7165
  0
LINE
  8
0
 10
34.5033
 20
-67.7165
 11
36.6133
 21
-66.5993
  0
LINE
  8
0
 10
36.6133
 20
-66.5993
 11
38.6871
 21
-65.4164
  0
LINE
  8
0
 10
38.6871
 20
-65.4164
 11
40.7228
 21
-64.1689
  0
LINE
  8
0
 10
40.7228
 20
-64.1689
 11
42.7183
 21
-62.8581
  0
LINE
  8
0
 10
42.7183
 20
-62.8581
 11
44.6717
 21
-61.4853
  0
LINE
  8
0
 10
44.6717
 20
-61.4853
 11
46.5809
 21
-60.0518
  0
LINE
  8
0
 10
46.5809
 20
-60.0518
 11
48.4442
 21
-58.559
  0
LINE
  8
0
 10
48.4442
 20
-58.559
 11
50.2597
 21
-57.0084
  0
LINE
  8
0
 10
50.2597
 20
-57.0084
 11
52.0256
 21
-55.4016
  0
LINE
  8
0
 10
52.0256
 20
-55.4016
 11
53.7401
 21
-53.7401
  0
LINE
  8
0
 10
53.7401
 20
-53.7401
 11
55.4016
 21
-52.0256
  0
LINE
  8
0
 10
55.4016
 20
-52.0256
 11
57.0084
 21
-50.2597
  0
LINE
  8
0
 10
57.0084
 20
-50.2597
 11
58.559
 21
-48.4442
  0
LINE
  8
0
 10
58.559
 20
-48.4442
 11
60.0518
 21
-46.5809
  0
LINE
  8
0
 10
60.0518
 20
-46.5809
 11
61.4853
 21
-44.6717
  0
LINE
  8
0
 10
61.4853
 20
-44.6717
 11
62.8581
 21
-42.7183
  0
LINE
  8
0
 10
62.8581
 20
-42.7183
 11
64.1689
 21
-40.7228
  0
LINE
  8
0
 10
64.1689
 20
-40.7228
 11
65.4164
 21
-38.6871
  0
LINE
  8
0
 10
65.4164
 20
-38.6871
 11
66.5993
 21
-36.6133
  0
LINE
  8
0
 10
66.5993
 20
-36.6133
 11
67.7165
 21
-34.5033
  0
LINE
  8
0
 10
67.7165
 20
-34.5033
 11
68.7669
 21
-32.3592
  0
LINE
  8
0
 10
68.7669
 20
-32.3592
 11
69.7494
 21
-30.1832
  0
LINE
  8
0
 10
69.7494
 20
-30.1832
 11
70.663
 21
-27.9775
  0
LINE
  8
0
 10
70.663
 20
-27.9775
 11
71.5069
 21
-25.7441
  0
LINE
  8
0
 10
71.5069
 20
-25.7441
 11
72.2803
 21
-23.4853
  0
LINE
  8
0
 10
72.2803
 20
-23.4853
 11
72.9823
 21
-21.2033
  0
LINE
  8
0
 10
72.9823
 20
-21.2033
 11
73.6123
 21
-18.9004
  0
LINE
  8
0
 10
73.6123
 20
-18.9004
 11
74.1697
 21
-16.5789
  0
LINE
  8
0
 10
74.1697
 20
-16.5789
 11
74.6538
 21
-14.241
  0
LINE
  8
0
 10
74.6538
 20
-14.241
 11
75.0643
 21
-11.889
  0
LINE
  8
0
 10
75.0643
 20
-11.889
 11
75.4007
 21
-9.52531
  0
LINE
  8
0
 10
75.4007
 20
-9.52531
 11
75.6627
 21
-7.15222
  0
LINE
  8
0
 10
75.6627
 20
-7.15222
 11
75.85
 21
-4.77208
  0
LINE
  8
0
 10
75.85
 20
-4.77208
 11
75.9625
 21
-2.38721
  0
LINE
  8
0
 10
75.9625
 20
-2.38721
 11
76
 21
0
  0
LINE
  8
0
 10
76
 20
0
 11
75.9625
 21
2.38721
  0
LINE
  8
0
 10
75.9625
 20
2.38721
 11
75.85
 21
4.77208
  0
LINE
  8
0
 10
75.85
 20
4.77208
 11
75.6627
 21
7.15222
  0
LINE
  8
0
 10
75.6627
 20
7.15222
 11
75.4007
 21
9.52531
  0
LINE
  8
0
 10
75.4007
 20
9.52531
 11
75.0643
 21
11.889
  0
LINE
  8
0
 10
75.0643
 20
11.889
 11
74.6538
 21
14.241
  0
LINE
  8
0
 10
74.6538
 20
14.241
 11
74.1697
 21
16.5789
  0
LINE
  8
0
 10
74.1697
 20
16.5789
 11
73.6123
 21
18.9004
  0
LINE
  8
0
 10
73.6123
 20
18.9004
 11
72.9823
 21
21.2033
  0
LINE
  8
0
 10
72.9823
 20
21.2033
 11
72.2803
 21
23.4853
  0
LINE
  8
0
 10
72.2803
 20
23.4853
 11
71.5069
 21
25.7441
  0
LINE
  8
0
 10
71.5069
 20
25.7441
 11
70.663
 21
27.9775
  0
LINE
  8
0
 10
70.663
 20
27.9775
 11
69.7494
 21
30.1832
  0
LINE
  8
0
 10
69.7494
 20
30.1832
 11
68.7669
 21
32.3592
  0
LINE
  8
0
 10
68.7669
 20
32.3592
 11
67.7165
 21
34.5033
  0
LINE
  8
0
 10
67.7165
 20
34.5033
 11
66.5993
 21
36.6133
  0
LINE
  8
0
 10
66.5993
 20
36.6133
 11
65.4164
 21
38.6871
  0
LINE
  8
0
 10
65.4164
 20
38.6871
 11
64.1689
 21
40.7228
  0
LINE
  8
0
 10
64.1689
 20
40.7228
 11
62.8581
 21
42.7183
  0
LINE
  8
0
 10
62.8581
 20
42.7183
 11
61.4853
 21
44.6717
  0
LINE
  8
0
 10
61.4853
 20
44.6717
 11
60.0518
 21
46.5809
  0
LINE
  8
0
 10
60.0518
 20
46.5809
 11
58.559
 21
48.4442
  0
LINE
  8
0
 10
58.559
 20
48.4442
 11
57.0084
 21
50.2597
  0
LINE
  8
0
 10
57.0084
 20
50.2597
 11
55.4016
 21
52.0256
  0
LINE
  8
0
 10
55.4016
 20
52.0256
 11
53.7401
 21
53.7401
  0
LINE
  8
0
 10
53.7401
 20
53.7401
 11
52.0256
 21
55.4016
  0
LINE
  8
0
 10
52.0256
 20
55.4016
 11
50.2597
 21
57.0084
  0
LINE
  8
0
 10
50.2597
 20
57.0084
 11
48.4442
 21
58.559
  0
LINE
  8
0
 10
48.4442
 20
58.559
 11
46.5809
 21
60.0518
  0
LINE
  8
0
 10
46.5809
 20
60.0518
 11
44.6717
 21
61.4853
  0
LINE
  8
0
 10
44.6717
 20
61.4853
 11
42.7183
 21
62.8581
  0
LINE
  8
0
 10
42.7183
 20
62.8581
 11
40.7228
 21
64.1689
  0
LINE
  8
0
 10
40.7228
 20
64.1689
 11
38.6871
 21
65.4164
  0
LINE
  8
0
 10
38.6871
 20
65.4164
 11
36.6133
 21
66.5993
  0
LINE
  8
0
 10
36.6133
 20
66.5993
 11
34.5033
 21
67.7165
  0
LINE
  8
0
 10
34.5033
 20
67.7165
 11
32.3592
 21
68.7669
  0
LINE
  8
0
 10
32.3592
 20
68.7669
 11
30.1832
 21
69.7494
  0
LINE
  8
0
 10
30.1832
 20
69.7494
 11
27.9775
 21
70.663
  0
LINE
  8
0
 10
27.9775
 20
70.663
 11
25.7441
 21
71.5069
  0
LINE
  8
0
 10
25.7441
 20
71.5069
 11
23.4853
 21
72.2803
  0
LINE
  8
0
 10
23.4853
 20
72.2803
 11
21.2033
 21
72.9823
  0
LINE
  8
0
 10
21.2033
 20
72.9823
 11
18.9004
 21
73.6123
  0
LINE
  8
0
 10
18.9004
 20
73.6123
 11
16.5789
 21
74.1697
  0
LINE
  8
0
 10
16.5789
 20
74.1697
 11
14.241
 21
74.6538
  0
LINE
  8
0
 10
14.241
 20
74.6538
 11
11.889
 21
75.0643
  0
LINE
  8
0
 10
11.889
 20
75.0643
 11
9.52531
 21
75.4007
  0
LINE
  8
0
 10
9.52531
 20
75.4007
 11
7.15222
 21
75.6627
  0
LINE
  8
0
 10
7.15222
 20
75.6627
 11
4.77208
 21
75.85
  0
LINE
  8
0
 10
4.77208
 20
75.85
 11
2.38721
 21
75.9625
  0
LINE
  8
0
 10
2.38721
 20
75.9625
 11
0
 21
76
  0
LINE
  8
0
 10
0
 20
76
 11
-2.38721
 21
75.9625
  0
LINE
  8
0
 10
-2.38721
 20
75.9625
 11
-4.77208
 21
75.85
  0
LINE
  8
0
 10
-4.77208
 20
75.85
 11
-7.15222
 21
75.6627
  0
LINE
  8
0
 10
-7.15222
 20
75.6627
 11
-9.52531
 21
75.4007
  0
LINE
  8
0
 10
-9.52531
 20
75.4007
 11
-11.889
 21
75.0643
  0
LINE
  8
0
 10
-11.889
 20
75.0643
 11
-14.241
 21
74.6538
  0
LINE
  8
0
 10
-14.241
 20
74.6538
 11
-16.5789
 21
74.1697
  0
LINE
  8
0
 10
-16.5789
 20
74.1697
 11
-18.9004
 21
73.6123
  0
LINE
  8
0
 10
-18.9004
 20
73.6123
 11
-21.2033
 21
72.9823
  0
LINE
  8
0
 10
-21.2033
 20
72.9823
 11
-23.4853
 21
72.2803
  0
LINE
  8
0
 10
-23.4853
 20
72.2803
 11
-25.7441
 21
71.5069
  0
LINE
  8
0
 10
-25.7441
 20
71.5069
 11
-27.9775
 21
70.663
  0
LINE
  8
0
 10
-27.9775
 20
70.663
 11
-30.1832
 21
69.7494
  0
LINE
  8
0
 10
-30.1832
 20
69.7494
 11
-32.3592
 21
68.7669
  0
LINE
  8
0
 10
-32.3592
 20
68.7669
 11
-34.5033
 21
67.7165
  0
LINE
  8
0
 10
-34.5033
 20
67.7165
 11
-36.6133
 21
66.5993
  0
LINE
  8
0
 10
-36.6133
 20
66.5993
 11
-38.6871
 21
65.4164
  0
LINE
  8
0
 10
-38.6871
 20
65.4164
 11
-40.7228
 21
64.1689
  0
LINE
  8
0
 10
-40.7228
 20
64.1689
 11
-42.7183
 21
62.8581
  0
LINE
  8
0
 10
-42.7183
 20
62.8581
 11
-44.6717
 21
61.4853
  0
LINE
  8
0
 10
-44.6717
 20
61.4853
 11
-46.5809
 21
60.0518
  0
LINE
  8
0
 10
-46.5809
 20
60.0518
 11
-48.4442
 21
58.559
  0
LINE
  8
0
 10
-48.4442
 20
58.559
 11
-50.2597
 21
57.0084
  0
LINE
  8
0
 10
-50.2597
 20
57.0084
 11
-52.0256
 21
55.4016
  0
LINE
  8
0
 10
-52.0256
 20
55.4016
 11
-53.7401
 21
53.7401
  0
LINE
  8
0
 10
-53.7401
 20
53.7401
 11
-55.4016
 21
52.0256
  0
LINE
  8
0
 10
-55.4016
 20
52.0256
 11
-57.0084
 21
50.2597
  0
LINE
  8
0
 10
-57.0084
 20
50.2597
 11
-58.559
 21
48.4442
  0
LINE
  8
0
 10
-58.559
 20
48.4442
 11
-60.0518
 21
46.5809
  0
LINE
  8
0
 10
-60.0518
 20
46.5809
 11
-61.4853
 21
44.6717
  0
LINE
  8
0
 10
-61.4853
 20
44.6717
 11
-62.8581
 21
42.7183
  0
LINE
  8
0
 10
-62.8581
 20
42.7183
 11
-64.1689
 21
40.7228
  0
LINE
  8
0
 10
-64.1689
 20
40.7228
 11
-65.4164
 21
38.6871
  0
LINE
  8
0
 10
-65.4164
 20
38.6871
 11
-66.5993
 21
36.6133
  0
LINE
  8
0
 10
-66.5993
 20
36.6133
 11
-67.7165
 21
34.5033
  0
LINE
  8
0
 10
-67.7165
 20
34.5033
 11
-68.7669
 21
32.3592
  0
LINE
  8
0
 10
-68.7669
 20
32.3592
 11
-69.7494
 21
30.1832
  0
LINE
  8
0
 10
-69.7494
 20
30.1832
 11
-70.663
 21
27.9775
  0
LINE
  8
0
 10
-70.663
 20
27.9775
 11
-71.5069
 21
25.7441
  0
LINE
  8
0
 10
-71.5069
 20
25.7441
 11
-72.2803
 21
23.4853
  0
LINE
  8
0
 10
-72.2803
 20
23.4853
 11
-72.9823
 21
21.2033
  0
LINE
  8
0
 10
-72.9823
 20
21.2033
 11
-73.6123
 21
18.9004
  0
LINE
  8
0
 10
-73.6123
 20
18.9004
 11
-74.1697
 21
16.5789
  0
LINE
  8
0
 10
-74.1697
 20
16.5789
 11
-74.6538
 21
14.241
  0
LINE
  8
0
 10
-74.6538
 20
14.241
 11
-75.0643
 21
11.889
  0
LINE
  8
0
 10
-75.0643
 20
11.889
 11
-75.4007
 21
9.52531
  0
LINE
  8
0
 10
-75.4007
 20
9.52531
 11
-75.6627
 21
7.15222
  0
LINE
  8
0
 10
-75.6627
 20
7.15222
 11
-75.85
 21
4.77208
  0
LINE
  8
0
 10
-75.85
 20
4.77208
 11
-75.9625
 21
2.38721
  0
LINE
  8
0
 10
-75.9625
 20
2.38721
 11
-76
 21
0
  0
LINE
  8
0
 10
-76
 20
0
 11
-75.9625
 21
-2.38721
  0
LINE
  8
0
 10
-75.9625
 20
-2.38721
 11
-75.85
 21
-4.77208
  0
LINE
  8
0
 10
-75.85
 20
-4.77208
 11
-75.6627
 21
-7.15222
  0
LINE
  8
0
 10
-75.6627
 20
-7.15222
 11
-75.4007
 21
-9.52531
  0
LINE
  8
0
 10
-75.4007
 20
-9.52531
 11
-75.0643
 21
-11.889
  0
LINE
  8
0
 10
-75.0643
 20
-11.889
 11
-74.6538
 21
-14.241
  0
LINE
  8
0
 10
-74.6538
 20
-14.241
 11
-74.1697
 21
-16.5789
  0
LINE
  8
0
 10
-74.1697
 20
-16.5789
 11
-73.6123
 21
-18.9004
  0
LINE
  8
0
 10
-73.6123
 20
-18.9004
 11
-72.9823
 21
-21.2033
  0
LINE
  8
0
 10
-72.9823
 20
-21.2033
 11
-72.2803
 21
-23.4853
  0
LINE
  8
0
 10
-72.2803
 20
-23.4853
 11
-71.5069
 21
-25.7441
  0
LINE
  8
0
 10
-71.5069
 20
-25.7441
 11
-70.663
 21
-27.9775
  0
LINE
  8
0
 10
-70.663
 20
-27.9775
 11
-69.7494
 21
-30.1832
  0
LINE
  8
0
 10
-69.7494
 20
-30.1832
 11
-68.7669
 21
-32.3592
  0
LINE
  8
0
 10
-68.7669
 20
-32.3592
 11
-67.7165
 21
-34.5033
  0
LINE
  8
0
 10
-67.7165
 20
-34.5033
 11
-66.5993
 21
-36.6133
  0
LINE
  8
0
 10
-66.5993
 20
-36.6133
 11
-65.4164
 21
-38.6871
  0
LINE
  8
0
 10
-65.4164
 20
-38.6871
 11
-64.1689
 21
-40.7228
  0
LINE
  8
0
 10
-64.1689
 20
-40.7228
 11
-62.8581
 21
-42.7183
  0
LINE
  8
0
 10
-62.8581
 20
-42.7183
 11
-61.4853
 21
-44.6717
  0
LINE
  8
0
 10
-61.4853
 20
-44.6717
 11
-60.0518
 21
-46.5809
  0
LINE
  8
0
 10
-60.0518
 20
-46.5809
 11
-58.559
 21
-48.4442
  0
LINE
  8
0
 10
-58.559
 20
-48.4442
 11
-57.0084
 21
-50.2597
  0
LINE
  8
0
 10
-57.0084
 20
-50.2597
 11
-55.4016
 21
-52.0256
  0
LINE
  8
0
 10
-55.4016
 20
-52.0256
 11
-53.7401
 21
-53.7401
  0
LINE
  8
0
 10
-53.7401
 20
-53.7401
 11
-52.0256
 21
-55.4016
  0
LINE
  8
0
 10
-52.0256
 20
-55.4016
 11
-50.2597
 21
-57.0084
  0
LINE
  8
0
 10
-50.2597
 20
-57.0084
 11
-48.4442
 21
-58.559
  0
LINE
  8
0
 10
-48.4442
 20
-58.559
 11
-46.5809
 21
-60.0518
  0
LINE
  8
0
 10
-46.5809
 20
-60.0518
 11
-44.6717
 21
-61.4853
  0
LINE
  8
0
 10
-44.6717
 20
-61.4853
 11
-42.7183
 21
-62.8581
  0
LINE
  8
0
 10
-42.7183
 20
-62.8581
 11
-40.7228
 21
-64.1689
  0
LINE
  8
0
 10
-40.7228
 20
-64.1689
 11
-38.6871
 21
-65.4164
  0
LINE
  8
0
 10
-38.6871
 20
-65.4164
 11
-36.6133
 21
-66.5993
  0
LINE
  8
0
 10
-36.6133
 20
-66.5993
 11
-34.5033
 21
-67.7165
  0
LINE
  8
0
 10
-34.5033
 20
-67.7165
 11
-32.3592
 21
-68.7669
  0
LINE
  8
0
 10
-32.3592
 20
-68.7669
 11
-30.1832
 21
-69.7494
  0
LINE
  8
0
 10
-30.1832
 20
-69.7494
 11
-27.9775
 21
-70.663
  0
LINE
  8
0
 10
-27.9775
 20
-70.663
 11
-25.7441
 21
-71.5069
  0
LINE
  8
0
 10
-25.7441
 20
-71.5069
 11
-23.4853
 21
-72.2803
  0
LINE
  8
0
 10
-23.4853
 20
-72.2803
 11
-21.2033
 21
-72.9823
  0
LINE
  8
0
 10
-21.2033
 20
-72.9823
 11
-18.9004
 21
-73.6123
  0
LINE
  8
0
 10
-18.9004
 20
-73.6123
 11
-16.5789
 21
-74.1697
  0
LINE
  8
0
 10
-16.5789
 20
-74.1697
 11
-14.241
 21
-74.6538
  0
LINE
  8
0
 10
-14.241
 20
-74.6538
 11
-11.889
 21
-75.0643
  0
LINE
  8
0
 10
-11.889
 20
-75.0643
 11
-9.52531
 21
-75.4007
  0
LINE
  8
0
 10
-9.52531
 20
-75.4007
 11
-7.15222
 21
-75.6627
  0
LINE
  8
0
 10
-7.15222
 20
-75.6627
 11
-4.77208
 21
-75.85
  0
LINE
  8
0
 10
-4.77208
 20
-75.85
 11
-2.38721
 21
-75.9625
  0
LINE
  8
0
 10
-2.38721
 20
-75.9625
 11
0
 21
-76
  0
LINE
  8
0
 10
0
 20
-76
 11
2.38721
 21
-75.9625
  0
LINE
  8
0
 10
4
 20
4
 11
4
 21
68.8795
  0
LINE
  8
0
 10
4
 20
68.8795
 11
4.33255
 21
68.8638
  0
LINE
  8
0
 10
4.33255
 20
68.8638
 11
6.49347
 21
68.6938
  0
LINE
  8
0
 10
6.49347
 20
68.6938
 11
8.64798
 21
68.4559
  0
LINE
  8
0
 10
8.64798
 20
68.4559
 11
10.794
 21
68.1505
  0
LINE
  8
0
 10
10.794
 20
68.1505
 11
12.9293
 21
67.7778
  0
LINE
  8
0
 10
12.9293
 20
67.7778
 11
15.0519
 21
67.3383
  0
LINE
  8
0
 10
15.0519
 20
67.3383
 11
17.1596
 21
66.8322
  0
LINE
  8
0
 10
17.1596
 20
66.8322
 11
19.2504
 21
66.2603
  0
LINE
  8
0
 10
19.2504
 20
66.2603
 11
21.3222
 21
65.6229
  0
LINE
  8
0
 10
21.3222
 20
65.6229
 11
23.3729
 21
64.9208
  0
LINE
  8
0
 10
23.3729
 20
64.9208
 11
25.4006
 21
64.1546
  0
LINE
  8
0
 10
25.4006
 20
64.1546
 11
27.4032
 21
63.3251
  0
LINE
  8
0
 10
27.4032
 20
63.3251
 11
29.3788
 21
62.4331
  0
LINE
  8
0
 10
29.3788
 20
62.4331
 11
31.3253
 21
61.4795
  0
LINE
  8
0
 10
31.3253
 20
61.4795
 11
33.241
 21
60.4652
  0
LINE
  8
0
 10
33.241
 20
60.4652
 11
35.1239
 21
59.3912
  0
LINE
  8
0
 10
35.1239
 20
59.3912
 11
36.972
 21
58.2586
  0
LINE
  8
0
 10
36.972
 20
58.2586
 11
38.7838
 21
57.0686
  0
LINE
  8
0
 10
38.7838
 20
57.0686
 11
40.5572
 21
55.8222
  0
LINE
  8
0
 10
40.5572
 20
55.8222
 11
42.2906
 21
54.5207
  0
LINE
  8
0
 10
42.2906
 20
54.5207
 11
43.9823
 21
53.1654
  0
LINE
  8
0
 10
43.9823
 20
53.1654
 11
45.6305
 21
51.7577
  0
LINE
  8
0
 10
45.6305
 20
51.7577
 11
47.2337
 21
50.2988
  0
LINE
  8
0
 10
47.2337
 20
50.2988
 11
48.7904
 21
48.7904
  0
LINE
  8
0
 10
48.7904
 20
48.7904
 11
50.2988
 21
47.2337
  0
LINE
  8
0
 10
50.2988
 20
47.2337
 11
51.7577
 21
45.6305
  0
LINE
  8
0
 10
51.7577
 20
45.6305
 11
53.1654
 21
43.9823
  0
LINE
  8
0
 10
53.1654
 20
43.9823
 11
54.5207
 21
42.2906
  0
LINE
  8
0
 10
54.5207
 20
42.2906
 11
55.8222
 21
40.5572
  0
LINE
  8
0
 10
55.8222
 20
40.5572
 11
57.0686
 21
38.7838
  0
LINE
  8
0
 10
57.0686
 20
38.7838
 11
58.2586
 21
36.972
  0
LINE
  8
0
 10
58.2586
 20
36.972
 11
59.3912
 21
35.1239
  0
LINE
  8
0
 10
59.3912
 20
35.1239
 11
60.4652
 21
33.241
  0
LINE
  8
0
 10
60.4652
 20
33.241
 11
61.4795
 21
31.3253
  0
LINE
  8
0
 10
61.4795
 20
31.3253
 11
62.4331
 21
29.3788
  0
LINE
  8
0
 10
62.4331
 20
29.3788
 11
63.3251
 21
27.4032
  0
LINE
  8
0
 10
63.3251
 20
27.4032
 11
64.1546
 21
25.4006
  0
LINE
  8
0
 10
64.1546
 20
25.4006
 11
64.9208
 21
23.3729
  0
LINE
  8
0
 10
64.9208
 20
23.3729
 11
65.6229
 21
21.3222
  0
LINE
  8
0
 10
65.6229
 20
21.3222
 11
66.2603
 21
19.2504
  0
LINE
  8
0
 10
66.2603
 20
19.2504
 11
66.8322
 21
17.1596
  0
LINE
  8
0
 10
66.8322
 20
17.1596
 11
67.3383
 21
15.0519
  0
LINE
  8
0
 10
67.3383
 20
15.0519
 11
67.7778
 21
12.9293
  0
LINE
  8
0
 10
67.7778
 20
12.9293
 11
68.1505
 21
10.794
  0
LINE
  8
0
 10
68.1505
 20
10.794
 11
68.4559
 21
8.64798
  0
LINE
  8
0
 10
68.4559
 20
8.64798
 11
68.6938
 21
6.49347
  0
LINE
  8
0
 10
68.6938
 20
6.49347
 11
68.8638
 21
4.33255
  0
LINE
  8
0
 10
68.8638
 20
4.33255
 11
68.8795
 21
4
  0
LINE
  8
0
 10
68.8795
 20
4
 11
4
 21
4
  0
LINE
  8
0
 10
-68.8795
 20
4
 11
-68.8638
 21
4.33255
  0
LINE
  8
0
 10
-68.8638
 20
4.33255
 11
-68.6938
 21
6.49347
  0
LINE
  8
0
 10
-68.6938
 20
6.49347
 11
-68.4559
 21
8.64798
  0
LINE
  8
0
 10
-68.4559
 20
8.64798
 11
-68.1505
 21
10.794
  0
LINE
  8
0
 10
-68.1505
 20
10.794
 11
-67.7778
 21
12.9293
  0
LINE
  8
0
 10
-67.7778
 20
12.9293
 11
-67.3383
 21
15.0519
  0
LINE
  8
0
 10
-67.3383
 20
15.0519
 11
-66.8322
 21
17.1596
  0
LINE
  8
0
 10
-66.8322
 20
17.1596
 11
-66.2603
 21
19.2504
  0
LINE
  8
0
 10
-66.2603
 20
19.2504
 11
-65.6229
 21
21.3222
  0
LINE
  8
0
 10
-65.6229
 20
21.3222
 11
-64.9208
 21
23.3729
  0
LINE
  8
0
 10
-64.9208
 20
23.3729
 11
-64.1546
 21
25.4006
  0
LINE
  8
0
 10
-64.1546
 20
25.4006
 11
-63.3251
 21
27.4032
  0
LINE
  8
0
 10
-63.3251
 20
27.4032
 11
-62.4331
 21
29.3788
  0
LINE
  8
0
 10
-62.4331
 20
29.3788
 11
-61.4795
 21
31.3253
  0
LINE
  8
0
 10
-61.4795
 20
31.3253
 11
-60.4652
 21
33.241
  0
LINE
  8
0
 10
-60.4652
 20
33.241
 11
-59.3912
 21
35.1239
  0
LINE
  8
0
 10
-59.3912
 20
35.1239
 11
-58.2586
 21
36.972
  0
LINE
  8
0
 10
-58.2586
 20
36.972
 11
-57.0686
 21
38.7838
  0
LINE
  8
0
 10
-57.0686
 20
38.7838
 11
-55.8222
 21
40.5572
  0
LINE
  8
0
 10
-55.8222
 20
40.5572
 11
-54.5207
 21
42.2906
  0
LINE
  8
0
 10
-54.5207
 20
42.2906
 11
-53.1654
 21
43.9823
  0
LINE
  8
0
 10
-53.1654
 20
43.9823
 11
-51.7577
 21
45.6305
  0
LINE
  8
0
 10
-51.7577
 20
45.6305
 11
-50.2988
 21
47.2337
  0
LINE
  8
0
 10
-50.2988
 20
47.2337
 11
-48.7904
 21
48.7904
  0
LINE
  8
0
 10
-48.7904
 20
48.7904
 11
-47.2337
 21
50.2988
  0
LINE
  8
0
 10
-47.2337
 20
50.2988
 11
-45.6305
 21
51.7577
  0
LINE
  8
0
 10
-45.6305
 20
51.7577
 11
-43.9823
 21
53.1654
  0
LINE
  8
0
 10
-43.9823
 20
53.1654
 11
-42.2906
 21
54.5207
  0
LINE
  8
0
 10
-42.2906
 20
54.5207
 11
-40.5572
 21
55.8222
  0
LINE
  8
0
 10
-40.5572
 20
55.8222
 11
-38.7838
 21
57.0686
  0
LINE
  8
0
 10
-38.7838
 20
57.0686
 11
-36.972
 21
58.2586
  0
LINE
  8
0
 10
-36.972
 20
58.2586
 11
-35.1239
 21
59.3912
  0
LINE
  8
0
 10
-35.1239
 20
59.3912
 11
-33.241
 21
60.4652
  0
LINE
  8
0
 10
-33.241
 20
60.4652
 11
-31.3253
 21
61.4795
  0
LINE
  8
0
 10
-31.3253
 20
61.4795
 11
-29.3788
 21
62.4331
  0
LINE
  8
0
 10
-29.3788
 20
62.4331
 11
-27.4032
 21
63.3251
  0
LINE
  8
0
 10
-27.4032
 20
63.3251
 11
-25.4006
 21
64.1546
  0
LINE
  8
0
 10
-25.4006
 20
64.1546
 11
-23.3729
 21
64.9208
  0
LINE
  8
0
 10
-23.3729
 20
64.9208
 11
-21.3222
 21
65.6229
  0
LINE
  8
0
 10
-21.3222
 20
65.6229
 11
-19.2504
 21
66.2603
  0
LINE
  8
0
 10
-19.2504
 20
66.2603
 11
-17.1596
 21
66.8322
  0
LINE
  8
0
 10
-17.1596
 20
66.8322
 11
-15.0519
 21
67.3383
  0
LINE
  8
0
 10
-15.0519
 20
67.3383
 11
-12.9293
 21
67.7778
  0
LINE
  8
0
 10
-12.9293
 20
67.7778
 11
-10.794
 21
68.1505
  0
LINE
  8
0
 10
-10.794
 20
68.1505
 11
-8.64798
 21
68.4559
  0
LINE
  8
0
 10
-8.64798
 20
68.4559
 11
-6.49347
 21
68.6938
  0
LINE
  8
0
 10
-6.49347
 20
68.6938
 11
-4.33255
 21
68.8638
  0
LINE
  8
0
 10
-4.33255
 20
68.8638
 11
-4
 21
68.8795
  0
LINE
  8
0
 10
-4
 20
68.8795
 11
-4
 21
4
  0
LINE
  8
0
 10
-4
 20
4
 11
-68.8795
 21
4
  0
LINE
  8
0
 10
-0.0117645
 20
-0.374802
 11
-0.0235443
 21
-0.374252
  0
LINE
  8
0
 10
-0.0235443
 20
-0.374252
 11
-0.0352783
 21
-0.373322
  0
LINE
  8
0
 10
-0.0352783
 20
-0.373322
 11
-0.0469971
 21
-0.37204
  0
LINE
  8
0
 10
-0.0469971
 20
-0.37204
 11
-0.0586548
 21
-0.370377
  0
LINE
  8
0
 10
-0.0586548
 20
-0.370377
 11
-0.0702667
 21
-0.368347
  0
LINE
  8
0
 10
-0.0702667
 20
-0.368347
 11
-0.0818024
 21
-0.365967
  0
LINE
  8
0
 10
-0.0818024
 20
-0.365967
 11
-0.0932465
 21
-0.363205
  0
LINE
  8
0
 10
-0.0932465
 20
-0.363205
 11
-0.104614
 21
-0.360107
  0
LINE
  8
0
 10
-0.104614
 20
-0.360107
 11
-0.115875
 21
-0.356644
  0
LINE
  8
0
 10
-0.115875
 20
-0.356644
 11
-0.127014
 21
-0.352829
  0
LINE
  8
0
 10
-0.127014
 20
-0.352829
 11
-0.138031
 21
-0.348663
  0
LINE
  8
0
 10
-0.138031
 20
-0.348663
 11
-0.148926
 21
-0.344147
  0
LINE
  8
0
 10
-0.148926
 20
-0.344147
 11
-0.159653
 21
-0.33931
  0
LINE
  8
0
 10
-0.159653
 20
-0.33931
 11
-0.170242
 21
-0.334122
  0
LINE
  8
0
 10
-0.170242
 20
-0.334122
 11
-0.180649
 21
-0.328613
  0
LINE
  8
0
 10
-0.180649
 20
-0.328613
 11
-0.190887
 21
-0.322769
  0
LINE
  8
0
 10
-0.190887
 20
-0.322769
 11
-0.200928
 21
-0.31662
  0
LINE
  8
0
 10
-0.200928
 20
-0.31662
 11
-0.21077
 21
-0.31015
  0
LINE
  8
0
 10
-0.21077
 20
-0.31015
 11
-0.220413
 21
-0.303375
  0
LINE
  8
0
 10
-0.220413
 20
-0.303375
 11
-0.229828
 21
-0.296295
  0
LINE
  8
0
 10
-0.229828
 20
-0.296295
 11
-0.239029
 21
-0.28894
  0
LINE
  8
0
 10
-0.239029
 20
-0.28894
 11
-0.247986
 21
-0.281281
  0
LINE
  8
0
 10
-0.247986
 20
-0.281281
 11
-0.256699
 21
-0.273361
  0
LINE
  8
0
 10
-0.256699
 20
-0.273361
 11
-0.265152
 21
-0.265152
  0
LINE
  8
0
 10
-0.265152
 20
-0.265152
 11
-0.273361
 21
-0.256699
  0
LINE
  8
0
 10
-0.273361
 20
-0.256699
 11
-0.281281
 21
-0.247986
  0
LINE
  8
0
 10
-0.281281
 20
-0.247986
 11
-0.28894
 21
-0.239029
  0
LINE
  8
0
 10
-0.28894
 20
-0.239029
 11
-0.296295
 21
-0.229828
  0
LINE
  8
0
 10
-0.296295
 20
-0.229828
 11
-0.303375
 21
-0.220413
  0
LINE
  8
0
 10
-0.303375
 20
-0.220413
 11
-0.31015
 21
-0.21077
  0
LINE
  8
0
 10
-0.31015
 20
-0.21077
 11
-0.31662
 21
-0.200928
  0
LINE
  8
0
 10
-0.31662
 20
-0.200928
 11
-0.322769
 21
-0.190887
  0
LINE
  8
0
 10
-0.322769
 20
-0.190887
 11
-0.328613
 21
-0.180649
  0
LINE
  8
0
 10
-0.328613
 20
-0.180649
 11
-0.334122
 21
-0.170242
  0
LINE
  8
0
 10
-0.334122
 20
-0.170242
 11
-0.33931
 21
-0.159653
  0
LINE
  8
0
 10
-0.33931
 20
-0.159653
 11
-0.344147
 21
-0.148926
  0
LINE
  8
0
 10
-0.344147
 20
-0.148926
 11
-0.348663
 21
-0.138031
  0
LINE
  8
0
 10
-0.348663
 20
-0.138031
 11
-0.352829
 21
-0.127014
  0
LINE
  8
0
 10
-0.352829
 20
-0.127014
 11
-0.356644
 21
-0.115875
  0
LINE
  8
0
 10
-0.356644
 20
-0.115875
 11
-0.360107
 21
-0.104614
  0
LINE
  8
0
 10
-0.360107
 20
-0.104614
 11
-0.363205
 21
-0.0932465
  0
LINE
  8
0
 10
-0.363205
 20
-0.0932465
 11
-0.365967
 21
-0.0818024
  0
LINE
  8
0
 10
-0.365967
 20
-0.0818024
 11
-0.368347
 21
-0.0702667
  0
LINE
  8
0
 10
-0.368347
 20
-0.0702667
 11
-0.370377
 21
-0.0586548
  0
LINE
  8
0
 10
-0.370377
 20
-0.0586548
 11
-0.37204
 21
-0.0469971
  0
LINE
  8
0
 10
-0.37204
 20
-0.0469971
 11
-0.373322
 21
-0.0352783
  0
LINE
  8
0
 10
-0.373322
 20
-0.0352783
 11
-0.374252
 21
-0.0235443
  0
LINE
  8
0
 10
-0.374252
 20
-0.0235443
 11
-0.374802
 21
-0.0117645
  0
LINE
  8
0
 10
-0.374802
 20
-0.0117645
 11
-0.375
 21
0
  0
LINE
  8
0
 10
-0.375
 20
0
 11
-0.374802
 21
0.0117645
  0
LINE
  8
0
 10
-0.374802
 20
0.0117645
 11
-0.374252
 21
0.0235443
  0
LINE
  8
0
 10
-0.374252
 20
0.0235443
 11
-0.373322
 21
0.0352783
  0
LINE
  8
0
 10
-0.373322
 20
0.0352783
 11
-0.37204
 21
0.0469971
  0
LINE
  8
0
 10
-0.37204
 20
0.0469971
 11
-0.370377
 21
0.0586548
  0
LINE
  8
0
 10
-0.370377
 20
0.0586548
 11
-0.368347
 21
0.0702667
  0
LINE
  8
0
 10
-0.368347
 20
0.0702667
 11
-0.365967
 21
0.0818024
  0
LINE
  8
0
 10
-0.365967
 20
0.0818024
 11
-0.363205
 21
0.0932465
  0
LINE
  8
0
 10
-0.363205
 20
0.0932465
 11
-0.360107
 21
0.104614
  0
LINE
  8
0
 10
-0.360107
 20
0.104614
 11
-0.356644
 21
0.115875
  0
LINE
  8
0
 10
-0.356644
 20
0.115875
 11
-0.352829
 21
0.127014
  0
LINE
  8
0
 10
-0.352829
 20
0.127014
 11
-0.348663
 21
0.138031
  0
LINE
  8
0
 10
-0.348663
 20
0.138031
 11
-0.344147
 21
0.148926
  0
LINE
  8
0
 10
-0.344147
 20
0.148926
 11
-0.33931
 21
0.159653
  0
LINE
  8
0
 10
-0.33931
 20
0.159653
 11
-0.334122
 21
0.170242
  0
LINE
  8
0
 10
-0.334122
 20
0.170242
 11
-0.328613
 21
0.180649
  0
LINE
  8
0
 10
-0.328613
 20
0.180649
 11
-0.322769
 21
0.190887
  0
LINE
  8
0
 10
-0.322769
 20
0.190887
 11
-0.31662
 21
0.200928
  0
LINE
  8
0
 10
-0.31662
 20
0.200928
 11
-0.31015
 21
0.21077
  0
LINE
  8
0
 10
-0.31015
 20
0.21077
 11
-0.303375
 21
0.220413
  0
LINE
  8
0
 10
-0.303375
 20
0.220413
 11
-0.296295
 21
0.229828
  0
LINE
  8
0
 10
-0.296295
 20
0.229828
 11
-0.28894
 21
0.239029
  0
LINE
  8
0
 10
-0.28894
 20
0.239029
 11
-0.281281
 21
0.247986
  0
LINE
  8
0
 10
-0.281281
 20
0.247986
 11
-0.273361
 21
0.256699
  0
LINE
  8
0
 10
-0.273361
 20
0.256699
 11
-0.265152
 21
0.265152
  0
LINE
  8
0
 10
-0.265152
 20
0.265152
 11
-0.256699
 21
0.273361
  0
LINE
  8
0
 10
-0.256699
 20
0.273361
 11
-0.247986
 21
0.281281
  0
LINE
  8
0
 10
-0.247986
 20
0.281281
 11
-0.239029
 21
0.28894
  0
LINE
  8
0
 10
-0.239029
 20
0.28894
 11
-0.229828
 21
0.296295
  0
LINE
  8
0
 10
-0.229828
 20
0.296295
 11
-0.220413
 21
0.303375
  0
LINE
  8
0
 10
-0.220413
 20
0.303375
 11
-0.21077
 21
0.31015
  0
LINE
  8
0
 10
-0.21077
 20
0.31015
 11
-0.200928
 21
0.31662
  0
LINE
  8
0
 10
-0.200928
 20
0.31662
 11
-0.190887
 21
0.322769
  0
LINE
  8
0
 10
-0.190887
 20
0.322769
 11
-0.180649
 21
0.328613
  0
LINE
  8
0
 10
-0.180649
 20
0.328613
 11
-0.170242
 21
0.334122
  0
LINE
  8
0
 10
-0.170242
 20
0.334122
 11
-0.159653
 21
0.33931
  0
LINE
  8
0
 10
-0.159653
 20
0.33931
 11
-0.148926
 21
0.344147
  0
LINE
  8
0
 10
-0.148926
 20
0.344147
 11
-0.138031
 21
0.348663
  0
LINE
  8
0
 10
-0.138031
 20
0.348663
 11
-0.127014
 21
0.352829
  0
LINE
  8
0
 10
-0.127014
 20
0.352829
 11
-0.115875
 21
0.356644
  0
LINE
  8
0
 10
-0.115875
 20
0.356644
 11
-0.104614
 21
0.360107
  0
LINE
  8
0
 10
-0.104614
 20
0.360107
 11
-0.0932465
 21
0.363205
  0
LINE
  8
0
 10
-0.0932465
 20
0.363205
 11
-0.0818024
 21
0.365967
  0
LINE
  8
0
 10
-0.0818024
 20
0.365967
 11
-0.0702667
 21
0.368347
  0
LINE
  8
0
 10
-0.0702667
 20
0.368347
 11
-0.0586548
 21
0.370377
  0
LINE
  8
0
 10
-0.0586548
 20
0.370377
 11
-0.0469971
 21
0.37204
  0
LINE
  8
0
 10
-0.0469971
 20
0.37204
 11
-0.0352783
 21
0.373322
  0
LINE
  8
0
 10
-0.0352783
 20
0.373322
 11
-0.0235443
 21
0.374252
  0
LINE
  8
0
 10
-0.0235443
 20
0.374252
 11
-0.0117645
 21
0.374802
  0
LINE
  8
0
 10
-0.0117645
 20
0.374802
 11
0
 21
0.375
  0
LINE
  8
0
 10
0
 20
0.375
 11
0.0117645
 21
0.374802
  0
LINE
  8
0
 10
0.0117645
 20
0.374802
 11
0.0235443
 21
0.374252
  0
LINE
  8
0
 10
0.0235443
 20
0.374252
 11
0.0352783
 21
0.373322
  0
LINE
  8
0
 10
0.0352783
 20
0.373322
 11
0.0469971
 21
0.37204
  0
LINE
  8
0
 10
0.0469971
 20
0.37204
 11
0.0586548
 21
0.370377
  0
LINE
  8
0
 10
0.0586548
 20
0.370377
 11
0.0702667
 21
0.368347
  0
LINE
  8
0
 10
0.0702667
 20
0.368347
 11
0.0818024
 21
0.365967
  0
LINE
  8
0
 10
0.0818024
 20
0.365967
 11
0.0932465
 21
0.363205
  0
LINE
  8
0
 10
0.0932465
 20
0.363205
 11
0.104614
 21
0.360107
  0
LINE
  8
0
 10
0.104614
 20
0.360107
 11
0.115875
 21
0.356644
  0
LINE
  8
0
 10
0.115875
 20
0.356644
 11
0.127014
 21
0.352829
  0
LINE
  8
0
 10
0.127014
 20
0.352829
 11
0.138031
 21
0.348663
  0
LINE
  8
0
 10
0.138031
 20
0.348663
 11
0.148926
 21
0.344147
  0
LINE
  8
0
 10
0.148926
 20
0.344147
 11
0.159653
 21
0.33931
  0
LINE
  8
0
 10
0.159653
 20
0.33931
 11
0.170242
 21
0.334122
  0
LINE
  8
0
 10
0.170242
 20
0.334122
 11
0.180649
 21
0.328613
  0
LINE
  8
0
 10
0.180649
 20
0.328613
 11
0.190887
 21
0.322769
  0
LINE
  8
0
 10
0.190887
 20
0.322769
 11
0.200928
 21
0.31662
  0
LINE
  8
0
 10
0.200928
 20
0.31662
 11
0.21077
 21
0.31015
  0
LINE
  8
0
 10
0.21077
 20
0.31015
 11
0.220413
 21
0.303375
  0
LINE
  8
0
 10
0.220413
 20
0.303375
 11
0.229828
 21
0.296295
  0
LINE
  8
0
 10
0.229828
 20
0.296295
 11
0.239029
 21
0.28894
  0
LINE
  8
0
 10
0.239029
 20
0.28894
 11
0.247986
 21
0.281281
  0
LINE
  8
0
 10
0.247986
 20
0.281281
 11
0.256699
 21
0.273361
  0
LINE
  8
0
 10
0.256699
 20
0.273361
 11
0.265152
 21
0.265152
  0
LINE
  8
0
 10
0.265152
 20
0.265152
 11
0.273361
 21
0.256699
  0
LINE
  8
0
 10
0.273361
 20
0.256699
 11
0.281281
 21
0.247986
  0
LINE
  8
0
 10
0.281281
 20
0.247986
 11
0.28894
 21
0.239029
  0
LINE
  8
0
 10
0.28894
 20
0.239029
 11
0.296295
 21
0.229828
  0
LINE
  8
0
 10
0.296295
 20
0.229828
 11
0.303375
 21
0.220413
  0
LINE
  8
0
 10
0.303375
 20
0.220413
 11
0.31015
 21
0.21077
  0
LINE
  8
0
 10
0.31015
 20
0.21077
 11
0.31662
 21
0.200928
  0
LINE
  8
0
 10
0.31662
 20
0.200928
 11
0.322769
 21
0.190887
  0
LINE
  8
0
 10
0.322769
 20
0.190887
 11
0.328613
 21
0.180649
  0
LINE
  8
0
 10
0.328613
 20
0.180649
 11
0.334122
 21
0.170242
  0
LINE
  8
0
 10
0.334122
 20
0.170242
 11
0.33931
 21
0.159653
  0
LINE
  8
0
 10
0.33931
 20
0.159653
 11
0.344147
 21
0.148926
  0
LINE
  8
0
 10
0.344147
 20
0.148926
 11
0.348663
 21
0.138031
  0
LINE
  8
0
 10
0.348663
 20
0.138031
 11
0.352829
 21
0.127014
  0
LINE
  8
0
 10
0.352829
 20
0.127014
 11
0.356644
 21
0.115875
  0
LINE
  8
0
 10
0.356644
 20
0.115875
 11
0.360107
 21
0.104614
  0
LINE
  8
0
 10
0.360107
 20
0.104614
 11
0.363205
 21
0.0932465
  0
LINE
  8
0
 10
0.363205
 20
0.0932465
 11
0.365967
 21
0.0818024
  0
LINE
  8
0
 10
0.365967
 20
0.0818024
 11
0.368347
 21
0.0702667
  0
LINE
  8
0
 10
0.368347
 20
0.0702667
 11
0.370377
 21
0.0586548
  0
LINE
  8
0
 10
0.370377
 20
0.0586548
 11
0.37204
 21
0.0469971
  0
LINE
  8
0
 10
0.37204
 20
0.0469971
 11
0.373322
 21
0.0352783
  0
LINE
  8
0
 10
0.373322
 20
0.0352783
 11
0.374252
 21
0.0235443
  0
LINE
  8
0
 10
0.374252
 20
0.0235443
 11
0.374802
 21
0.0117645
  0
LINE
  8
0
 10
0.374802
 20
0.0117645
 11
0.375
 21
0
  0
LINE
  8
0
 10
0.375
 20
0
 11
0.374802
 21
-0.0117645
  0
LINE
  8
0
 10
0.374802
 20
-0.0117645
 11
0.374252
 21
-0.0235443
  0
LINE
  8
0
 10
0.374252
 20
-0.0235443
 11
0.373322
 21
-0.0352783
  0
LINE
  8
0
 10
0.373322
 20
-0.0352783
 11
0.37204
 21
-0.0469971
  0
LINE
  8
0
 10
0.37204
 20
-0.0469971
 11
0.370377
 21
-0.0586548
  0
LINE
  8
0
 10
0.370377
 20
-0.0586548
 11
0.368347
 21
-0.0702667
  0
LINE
  8
0
 10
0.368347
 20
-0.0702667
 11
0.365967
 21
-0.0818024
  0
LINE
  8
0
 10
0.365967
 20
-0.0818024
 11
0.363205
 21
-0.0932465
  0
LINE
  8
0
 10
0.363205
 20
-0.0932465
 11
0.360107
 21
-0.104614
  0
LINE
  8
0
 10
0.360107
 20
-0.104614
 11
0.356644
 21
-0.115875
  0
LINE
  8
0
 10
0.356644
 20
-0.115875
 11
0.352829
 21
-0.127014
  0
LINE
  8
0
 10
0.352829
 20
-0.127014
 11
0.348663
 21
-0.138031
  0
LINE
  8
0
 10
0.348663
 20
-0.138031
 11
0.344147
 21
-0.148926
  0
LINE
  8
0
 10
0.344147
 20
-0.148926
 11
0.33931
 21
-0.159653
  0
LINE
  8
0
 10
0.33931
 20
-0.159653
 11
0.334122
 21
-0.170242
  0
LINE
  8
0
 10
0.334122
 20
-0.170242
 11
0.328613
 21
-0.180649
  0
LINE
  8
0
 10
0.328613
 20
-0.180649
 11
0.322769
 21
-0.190887
  0
LINE
  8
0
 10
0.322769
 20
-0.190887
 11
0.31662
 21
-0.200928
  0
LINE
  8
0
 10
0.31662
 20
-0.200928
 11
0.31015
 21
-0.21077
  0
LINE
  8
0
 10
0.31015
 20
-0.21077
 11
0.303375
 21
-0.220413
  0
LINE
  8
0
 10
0.303375
 20
-0.220413
 11
0.296295
 21
-0.229828
  0
LINE
  8
0
 10
0.296295
 20
-0.229828
 11
0.28894
 21
-0.239029
  0
LINE
  8
0
 10
0.28894
 20
-0.239029
 11
0.281281
 21
-0.247986
  0
LINE
  8
0
 10
0.281281
 20
-0.247986
 11
0.273361
 21
-0.256699
  0
LINE
  8
0
 10
0.273361
 20
-0.256699
 11
0.265152
 21
-0.265152
  0
LINE
  8
0
 10
0.265152
 20
-0.265152
 11
0.256699
 21
-0.273361
  0
LINE
  8
0
 10
0.256699
 20
-0.273361
 11
0.247986
 21
-0.281281
  0
LINE
  8
0
 10
0.247986
 20
-0.281281
 11
0.239029
 21
-0.28894
  0
LINE
  8
0
 10
0.239029
 20
-0.28894
 11
0.229828
 21
-0.296295
  0
LINE
  8
0
 10
0.229828
 20
-0.296295
 11
0.220413
 21
-0.303375
  0
LINE
  8
0
 10
0.220413
 20
-0.303375
 11
0.21077
 21
-0.31015
  0
LINE
  8
0
 10
0.21077
 20
-0.31015
 11
0.200928
 21
-0.31662
  0
LINE
  8
0
 10
0.200928
 20
-0.31662
 11
0.190887
 21
-0.322769
  0
LINE
  8
0
 10
0.190887
 20
-0.322769
 11
0.180649
 21
-0.328613
  0
LINE
  8
0
 10
0.180649
 20
-0.328613
 11
0.170242
 21
-0.334122
  0
LINE
  8
0
 10
0.170242
 20
-0.334122
 11
0.159653
 21
-0.33931
  0
LINE
  8
0
 10
0.159653
 20
-0.33931
 11
0.148926
 21
-0.344147
  0
LINE
  8
0
 10
0.148926
 20
-0.344147
 11
0.138031
 21
-0.348663
  0
LINE
  8
0
 10
0.138031
 20
-0.348663
 11
0.127014
 21
-0.352829
  0
LINE
  8
0
 10
0.127014
 20
-0.352829
 11
0.115875
 21
-0.356644
  0
LINE
  8
0
 10
0.115875
 20
-0.356644
 11
0.104614
 21
-0.360107
  0
LINE
  8
0
 10
0.104614
 20
-0.360107
 11
0.0932465
 21
-0.363205
  0
LINE
  8
0
 10
0.0932465
 20
-0.363205
 11
0.0818024
 21
-0.365967
  0
LINE
  8
0
 10
0.0818024
 20
-0.365967
 11
0.0702667
 21
-0.368347
  0
LINE
  8
0
 10
0.0702667
 20
-0.368347
 11
0.0586548
 21
-0.370377
  0
LINE
  8
0
 10
0.0586548
 20
-0.370377
 11
0.0469971
 21
-0.37204
  0
LINE
  8
0
 10
0.0469971
 20
-0.37204
 11
0.0352783
 21
-0.373322
  0
LINE
  8
0
 10
0.0352783
 20
-0.373322
 11
0.0235443
 21
-0.374252
  0
LINE
  8
0
 10
0.0235443
 20
-0.374252
 11
0.0117645
 21
-0.374802
  0
LINE
  8
0
 10
0.0117645
 20
-0.374802
 11
0
 21
-0.375
  0
LINE
  8
0
 10
0
 20
-0.375
 11
-0.0117645
 21
-0.374802
  0
LINE
  8
0
 10
4
 20
-4
 11
68.8795
 21
-4
  0
LINE
  8
0
 10
68.8795
 20
-4
 11
68.8638
 21
-4.33255
  0
LINE
  8
0
 10
68.8638
 20
-4.33255
 11
68.6938
 21
-6.49347
  0
LINE
  8
0
 10
68.6938
 20
-6.49347
 11
68.4559
 21
-8.64798
  0
LINE
  8
0
 10
68.4559
 20
-8.64798
 11
68.1505
 21
-10.794
  0
LINE
  8
0
 10
68.1505
 20
-10.794
 11
67.7778
 21
-12.9293
  0
LINE
  8
0
 10
67.7778
 20
-12.9293
 11
67.3383
 21
-15.0519
  0
LINE
  8
0
 10
67.3383
 20
-15.0519
 11
66.8322
 21
-17.1596
  0
LINE
  8
0
 10
66.8322
 20
-17.1596
 11
66.2603
 21
-19.2504
  0
LINE
  8
0
 10
66.2603
 20
-19.2504
 11
65.6229
 21
-21.3222
  0
LINE
  8
0
 10
65.6229
 20
-21.3222
 11
64.9208
 21
-23.3729
  0
LINE
  8
0
 10
64.9208
 20
-23.3729
 11
64.1546
 21
-25.4006
  0
LINE
  8
0
 10
64.1546
 20
-25.4006
 11
63.3251
 21
-27.4032
  0
LINE
  8
0
 10
63.3251
 20
-27.4032
 11
62.4331
 21
-29.3788
  0
LINE
  8
0
 10
62.4331
 20
-29.3788
 11
61.4795
 21
-31.3253
  0
LINE
  8
0
 10
61.4795
 20
-31.3253
 11
60.4652
 21
-33.241
  0
LINE
  8
0
 10
60.4652
 20
-33.241
 11
59.3912
 21
-35.1239
  0
LINE
  8
0
 10
59.3912
 20
-35.1239
 11
58.2586
 21
-36.972
  0
LINE
  8
0
 10
58.2586
 20
-36.972
 11
57.0686
 21
-38.7838
  0
LINE
  8
0
 10
57.0686
 20
-38.7838
 11
55.8222
 21
-40.5572
  0
LINE
  8
0
 10
55.8222
 20
-40.5572
 11
54.5207
 21
-42.2906
  0
LINE
  8
0
 10
54.5207
 20
-42.2906
 11
53.1654
 21
-43.9823
  0
LINE
  8
0
 10
53.1654
 20
-43.9823
 11
51.7577
 21
-45.6305
  0
LINE
  8
0
 10
51.7577
 20
-45.6305
 11
50.2988
 21
-47.2337
  0
LINE
  8
0
 10
50.2988
 20
-47.2337
 11
48.7904
 21
-48.7904
  0
LINE
  8
0
 10
48.7904
 20
-48.7904
 11
47.2337
 21
-50.2988
  0
LINE
  8
0
 10
47.2337
 20
-50.2988
 11
45.6305
 21
-51.7577
  0
LINE
  8
0
 10
45.6305
 20
-51.7577
 11
43.9823
 21
-53.1654
  0
LINE
  8
0
 10
43.9823
 20
-53.1654
 11
42.2906
 21
-54.5207
  0
LINE
  8
0
 10
42.2906
 20
-54.5207
 11
40.5572
 21
-55.8222
  0
LINE
  8
0
 10
40.5572
 20
-55.8222
 11
38.7838
 21
-57.0686
  0
LINE
  8
0
 10
38.7838
 20
-57.0686
 11
36.972
 21
-58.2586
  0
LINE
  8
0
 10
36.972
 20
-58.2586
 11
35.1239
 21
-59.3912
  0
LINE
  8
0
 10
35.1239
 20
-59.3912
 11
33.241
 21
-60.4652
  0
LINE
  8
0
 10
33.241
 20
-60.4652
 11
31.3253
 21
-61.4795
  0
LINE
  8
0
 10
31.3253
 20
-61.4795
 11
29.3788
 21
-62.4331
  0
LINE
  8
0
 10
29.3788
 20
-62.4331
 11
27.4032
 21
-63.3251
  0
LINE
  8
0
 10
27.4032
 20
-63.3251
 11
25.4006
 21
-64.1546
  0
LINE
  8
0
 10
25.4006
 20
-64.1546
 11
23.3729
 21
-64.9208
  0
LINE
  8
0
 10
23.3729
 20
-64.9208
 11
21.3222
 21
-65.6229
  0
LINE
  8
0
 10
21.3222
 20
-65.6229
 11
19.2504
 21
-66.2603
  0
LINE
  8
0
 10
19.2504
 20
-66.2603
 11
17.1596
 21
-66.8322
  0
LINE
  8
0
 10
17.1596
 20
-66.8322
 11
15.0519
 21
-67.3383
  0
LINE
  8
0
 10
15.0519
 20
-67.3383
 11
12.9293
 21
-67.7778
  0
LINE
  8
0
 10
12.9293
 20
-67.7778
 11
10.794
 21
-68.1505
  0
LINE
  8
0
 10
10.794
 20
-68.1505
 11
8.64798
 21
-68.4559
  0
LINE
  8
0
 10
8.64798
 20
-68.4559
 11
6.49347
 21
-68.6938
  0
LINE
  8
0
 10
6.49347
 20
-68.6938
 11
4.33255
 21
-68.8638
  0
LINE
  8
0
 10
4.33255
 20
-68.8638
 11
4
 21
-68.8795
  0
LINE
  8
0
 10
4
 20
-68.8795
 11
4
 21
-4
  0
LINE
  8
0
 10
-4.33255
 20
-68.8638
 11
-6.49347
 21
-68.6938
  0
LINE
  8
0
 10
-6.49347
 20
-68.6938
 11
-8.64798
 21
-68.4559
  0
LINE
  8
0
 10
-8.64798
 20
-68.4559
 11
-10.794
 21
-68.1505
  0
LINE
  8
0
 10
-10.794
 20
-68.1505
 11
-12.9293
 21
-67.7778
  0
LINE
  8
0
 10
-12.9293
 20
-67.7778
 11
-15.0519
 21
-67.3383
  0
LINE
  8
0
 10
-15.0519
 20
-67.3383
 11
-17.1596
 21
-66.8322
  0
LINE
  8
0
 10
-17.1596
 20
-66.8322
 11
-19.2504
 21
-66.2603
  0
LINE
  8
0
 10
-19.2504
 20
-66.2603
 11
-21.3222
 21
-65.6229
  0
LINE
  8
0
 10
-21.3222
 20
-65.6229
 11
-23.3729
 21
-64.9208
  0
LINE
  8
0
 10
-23.3729
 20
-64.9208
 11
-25.4006
 21
-64.1546
  0
LINE
  8
0
 10
-25.4006
 20
-64.1546
 11
-27.4032
 21
-63.3251
  0
LINE
  8
0
 10
-27.4032
 20
-63.3251
 11
-29.3788
 21
-62.4331
  0
LINE
  8
0
 10
-29.3788
 20
-62.4331
 11
-31.3253
 21
-61.4795
  0
LINE
  8
0
 10
-31.3253
 20
-61.4795
 11
-33.241
 21
-60.4652
  0
LINE
  8
0
 10
-33.241
 20
-60.4652
 11
-35.1239
 21
-59.3912
  0
LINE
  8
0
 10
-35.1239
 20
-59.3912
 11
-36.972
 21
-58.2586
  0
LINE
  8
0
 10
-36.972
 20
-58.2586
 11
-38.7838
 21
-57.0686
  0
LINE
  8
0
 10
-38.7838
 20
-57.0686
 11
-40.5572
 21
-55.8222
  0
LINE
  8
0
 10
-40.5572
 20
-55.8222
 11
-42.2906
 21
-54.5207
  0
LINE
  8
0
 10
-42.2906
 20
-54.5207
 11
-43.9823
 21
-53.1654
  0
LINE
  8
0
 10
-43.9823
 20
-53.1654
 11
-45.6305
 21
-51.7577
  0
LINE
  8
0
 10
-45.6305
 20
-51.7577
 11
-47.2337
 21
-50.2988
  0
LINE
  8
0
 10
-47.2337
 20
-50.2988
 11
-48.7904
 21
-48.7904
  0
LINE
  8
0
 10
-48.7904
 20
-48.7904
 11
-50.2988
 21
-47.2337
  0
LINE
  8
0
 10
-50.2988
 20
-47.2337
 11
-51.7577
 21
-45.6305
  0
LINE
  8
0
 10
-51.7577
 20
-45.6305
 11
-53.1654
 21
-43.9823
  0
LINE
  8
0
 10
-53.1654
 20
-43.9823
 11
-54.5207
 21
-42.2906
  0
LINE
  8
0
 10
-54.5207
 20
-42.2906
 11
-55.8222
 21
-40.5572
  0
LINE
  8
0
 10
-55.8222
 20
-40.5572
 11
-57.0686
 21
-38.7838
  0
LINE
  8
0
 10
-57.0686
 20
-38.7838
 11
-58.2586
 21
-36.972
  0
LINE
  8
0
 10
-58.2586
 20
-36.972
 11
-59.3912
 21
-35.1239
  0
LINE
  8
0
 10
-59.3912
 20
-35.1239
 11
-60.4652
 21
-33.241
  0
LINE
  8
0
 10
-60.4652
 20
-33.241
 11
-61.4795
 21
-31.3253
  0
LINE
  8
0
 10
-61.4795
 20
-31.3253
 11
-62.4331
 21
-29.3788
  0
LINE
  8
0
 10
-62.4331
 20
-29.3788
 11
-63.3251
 21
-27.4032
  0
LINE
  8
0
 10
-63.3251
 20
-27.4032
 11
-64.1546
 21
-25.4006
  0
LINE
  8
0
 10
-64.1546
 20
-25.4006
 11
-64.9208
 21
-23.3729
  0
LINE
  8
0
 10
-64.9208
 20
-23.3729
 11
-65.6229
 21
-21.3222
  0
LINE
  8
0
 10
-65.6229
 20
-21.3222
 11
-66.2603
 21
-19.2504
  0
LINE
  8
0
 10
-66.2603
 20
-19.2504
 11
-66.8322
 21
-17.1596
  0
LINE
  8
0
 10
-66.8322
 20
-17.1596
 11
-67.3383
 21
-15.0519
  0
LINE
  8
0
 10
-67.3383
 20
-15.0519
 11
-67.7778
 21
-12.9293
  0
LINE
  8
0
 10
-67.7778
 20
-12.9293
 11
-68.1505
 21
-10.794
  0
LINE
  8
0
 10
-68.1505
 20
-10.794
 11
-68.4559
 21
-8.64798
  0
LINE
  8
0
 10
-68.4559
 20
-8.64798
 11
-68.6938
 21
-6.49347
  0
LINE
  8
0
 10
-68.6938
 20
-6.49347
 11
-68.8638
 21
-4.33255
  0
LINE
  8
0
 10
-68.8638
 20
-4.33255
 11
-68.8795
 21
-4
  0
LINE
  8
0
 10
-68.8795
 20
-4
 11
-4
 21
-4
  0
LINE
  8
0
 10
-4
 20
-4
 11
-4
 21
-68.8795
  0
LINE
  8
0
 10
-4
 20
-68.8795
 11
-4.33255
 21
-68.8638
  0
ENDSEC
  0
SECTION
  2
OBJECTS
  0
DICTIONARY
  0
ENDSEC
  0
EOF
